<svg xmlns="http://www.w3.org/2000/svg" xmlns:xlink="http://www.w3.org/1999/xlink" width="800" zoomAndPan="magnify" viewBox="0 0 600 599.999999" height="800" preserveAspectRatio="xMidYMid meet" version="1.0"><defs><clipPath id="c3a3b1c49f"><path d="M 116 15 L 561 15 L 561 583.691406 L 116 583.691406 Z M 116 15 " clip-rule="nonzero"/></clipPath></defs><path fill="#f89fa4" d="M 116.496094 339.691406 C 131.574219 348.554688 149.984375 354.097656 165.925781 362.019531 C 213.292969 385.566406 264.304688 413.964844 295.484375 458.828125 C 298.675781 463.421875 322.160156 501.472656 320.699219 504.011719 C 349.160156 454.324219 370.480469 404.636719 404.566406 357.757812 C 442.917969 305.171875 481.269531 246.964844 499.683594 184.40625 C 511.101562 150.3125 513.914062 92.105469 481.261719 67.976562 C 424.574219 24.113281 371.980469 101.53125 344.808594 142.738281 C 333.3125 160.167969 322.289062 187.910156 302.289062 197.191406 C 299.984375 198.296875 297.949219 198.980469 296.15625 199.234375 L 295.902344 200.429688 C 295.902344 200.085938 295.816406 199.660156 295.726562 199.320312 C 293.859375 180.738281 289.082031 163.011719 282.007812 146.734375 C 239.476562 47.527344 114.449219 0.226562 48.734375 127.984375 C 5.695312 210.144531 52.488281 285.144531 116.496094 339.691406 " fill-opacity="1" fill-rule="nonzero"/><g clip-path="url(#c3a3b1c49f)"><path fill="#f8a1a6" d="M 344.808594 142.742188 C 371.980469 101.53125 424.574219 24.113281 481.261719 67.980469 C 513.917969 92.101562 511.101562 150.3125 499.683594 184.40625 C 481.269531 246.960938 442.917969 305.171875 404.566406 357.757812 C 370.480469 404.636719 349.164062 454.320312 320.699219 504.011719 C 322.160156 501.472656 298.675781 463.421875 295.484375 458.828125 C 264.304688 413.964844 213.292969 385.566406 165.925781 362.019531 C 149.984375 354.097656 131.574219 348.554688 116.496094 339.691406 C 122.203125 344.550781 127.996094 349.324219 133.964844 353.839844 C 214.929688 417.761719 274.59375 485.941406 308.683594 583.957031 C 372.609375 434.804688 568.628906 306.964844 560.105469 132.242188 C 547.324219 -68.042969 338.511719 21.449219 304.421875 166.335938 L 296.15625 199.234375 C 297.949219 198.976562 299.984375 198.296875 302.289062 197.1875 C 322.292969 187.910156 333.3125 160.171875 344.808594 142.742188 " fill-opacity="1" fill-rule="nonzero"/></g></svg>