<svg xmlns="http://www.w3.org/2000/svg" viewBox="0 0 280 520" width="280" height="520">
  <defs>
    <linearGradient id="r1" x1="0" y1="0" x2="1" y2="1"><stop offset="0%" stop-color="#EF4444"/><stop offset="100%" stop-color="#DC2626"/></linearGradient>
    <clipPath id="sc2"><rect x="12" y="12" width="256" height="496" rx="28"/></clipPath>
  </defs>
  <rect width="280" height="520" rx="36" fill="#1a1a2e" stroke="rgba(255,255,255,0.08)" stroke-width="1"/>
  <g clip-path="url(#sc2)">
    <rect x="12" y="12" width="256" height="496" fill="#FDF2F8"/>
    <rect x="12" y="12" width="256" height="36" fill="rgba(253,242,248,0.95)"/>
    <text x="140" y="32" font-family="-apple-system,Helvetica" font-size="11" font-weight="600" fill="#1F2937" text-anchor="middle">9:41</text>
    <rect x="100" y="12" width="80" height="24" rx="12" fill="#1a1a2e"/>

    <!-- Timer Card -->
    <rect x="20" y="56" width="240" height="100" rx="16" fill="white"/>
    <text x="140" y="108" font-family="'Courier New',monospace" font-size="48" font-weight="700" fill="#1F2937" text-anchor="middle" letter-spacing="2">0:45</text>
    <text x="140" y="130" font-family="-apple-system,Helvetica" font-size="11" font-weight="500" fill="#6B7280" text-anchor="middle">Contraction in progress...</text>

    <!-- Red Button -->
    <rect x="20" y="170" width="240" height="40" rx="12" fill="url(#r1)"/>
    <text x="140" y="195" font-family="-apple-system,Helvetica" font-size="14" font-weight="600" fill="white" text-anchor="middle">Contraction Started</text>

    <!-- Stats Row -->
    <rect x="20" y="224" width="75" height="56" rx="10" fill="#F9FAFB" stroke="#E5E7EB" stroke-width="0.5"/>
    <text x="57" y="248" font-family="-apple-system,Helvetica" font-size="18" font-weight="700" fill="#1F2937" text-anchor="middle">5</text>
    <text x="57" y="264" font-family="-apple-system,Helvetica" font-size="9" font-weight="500" fill="#6B7280" text-anchor="middle">Total Count</text>
    <rect x="102" y="224" width="75" height="56" rx="10" fill="#F9FAFB" stroke="#E5E7EB" stroke-width="0.5"/>
    <text x="139" y="248" font-family="-apple-system,Helvetica" font-size="18" font-weight="700" fill="#1F2937" text-anchor="middle">52s</text>
    <text x="139" y="264" font-family="-apple-system,Helvetica" font-size="9" font-weight="500" fill="#6B7280" text-anchor="middle">Avg Duration</text>
    <rect x="184" y="224" width="76" height="56" rx="10" fill="#F9FAFB" stroke="#E5E7EB" stroke-width="0.5"/>
    <text x="222" y="248" font-family="-apple-system,Helvetica" font-size="18" font-weight="700" fill="#1F2937" text-anchor="middle">4:30</text>
    <text x="222" y="264" font-family="-apple-system,Helvetica" font-size="9" font-weight="500" fill="#6B7280" text-anchor="middle">Avg Interval</text>

    <!-- Phase Card -->
    <rect x="20" y="294" width="240" height="64" rx="12" fill="#FEE2E2"/>
    <rect x="20" y="294" width="3" height="64" rx="1.5" fill="#EF4444"/>
    <text x="36" y="316" font-family="-apple-system,Helvetica" font-size="14" font-weight="600" fill="#EF4444">Active Labor</text>
    <text x="36" y="332" font-family="-apple-system,Helvetica" font-size="11" font-weight="500" fill="#6B7280">Go to hospital now</text>
    <rect x="36" y="340" width="208" height="12" rx="6" fill="#EF4444"/>
    <text x="140" y="350" font-family="-apple-system,Helvetica" font-size="8" font-weight="600" fill="white" text-anchor="middle">Go to Hospital Info</text>

    <!-- Log Table -->
    <rect x="20" y="372" width="240" height="130" rx="12" fill="white"/>
    <text x="32" y="393" font-family="-apple-system,Helvetica" font-size="12" font-weight="700" fill="#1F2937">Contraction Log</text>
    <text x="32" y="414" font-family="-apple-system,Helvetica" font-size="9" font-weight="600" fill="#9CA3AF">#</text>
    <text x="60" y="414" font-family="-apple-system,Helvetica" font-size="9" font-weight="600" fill="#9CA3AF">Time</text>
    <text x="130" y="414" font-family="-apple-system,Helvetica" font-size="9" font-weight="600" fill="#9CA3AF">Duration</text>
    <text x="200" y="414" font-family="-apple-system,Helvetica" font-size="9" font-weight="600" fill="#9CA3AF">Interval</text>
    <line x1="28" y1="420" x2="252" y2="420" stroke="#E5E7EB" stroke-width="1"/>

    <rect x="20" y="424" width="240" height="24" fill="#F9FAFB"/>
    <text x="32" y="440" font-family="-apple-system,Helvetica" font-size="10" font-weight="600" fill="#1F2937">1</text>
    <text x="60" y="440" font-family="-apple-system,Helvetica" font-size="10" fill="#1F2937">08:15</text>
    <text x="130" y="440" font-family="-apple-system,Helvetica" font-size="10" fill="#1F2937">48s</text>
    <text x="200" y="440" font-family="-apple-system,Helvetica" font-size="10" fill="#9CA3AF">--</text>

    <text x="32" y="464" font-family="-apple-system,Helvetica" font-size="10" font-weight="600" fill="#1F2937">2</text>
    <text x="60" y="464" font-family="-apple-system,Helvetica" font-size="10" fill="#1F2937">08:20</text>
    <text x="130" y="464" font-family="-apple-system,Helvetica" font-size="10" fill="#1F2937">55s</text>
    <text x="200" y="464" font-family="-apple-system,Helvetica" font-size="10" fill="#1F2937">4:32</text>

    <rect x="20" y="472" width="240" height="24" fill="#F9FAFB"/>
    <text x="32" y="488" font-family="-apple-system,Helvetica" font-size="10" font-weight="600" fill="#1F2937">3</text>
    <text x="60" y="488" font-family="-apple-system,Helvetica" font-size="10" fill="#1F2937">08:25</text>
    <text x="130" y="488" font-family="-apple-system,Helvetica" font-size="10" fill="#1F2937">52s</text>
    <text x="200" y="488" font-family="-apple-system,Helvetica" font-size="10" fill="#1F2937">4:18</text>
  </g>
  <rect x="105" y="500" width="70" height="4" rx="2" fill="rgba(255,255,255,0.15)"/>
</svg>