<svg xmlns="http://www.w3.org/2000/svg" viewBox="0 0 375 680" width="375" height="680">
  <defs>
    <linearGradient id="pinkGrad" x1="0" y1="0" x2="1" y2="1">
      <stop offset="0%" stop-color="#E91E8C"/>
      <stop offset="100%" stop-color="#FF6B9D"/>
    </linearGradient>
    <filter id="shadow1" x="-5%" y="-5%" width="110%" height="115%">
      <feDropShadow dx="0" dy="1" stdDeviation="3" flood-color="#000" flood-opacity="0.06"/>
    </filter>
  </defs>

  <!-- Background -->
  <rect width="375" height="680" fill="#F8F6F9"/>

  <!-- Tab Bar -->
  <rect x="0" y="0" width="375" height="56" fill="#F8F6F9"/>
  <line x1="0" y1="56" x2="375" y2="56" stroke="#F0ECEF" stroke-width="1"/>
  <text x="94" y="36" font-family="-apple-system, SF Pro Text, Helvetica" font-size="16" font-weight="600" fill="#E91E8C" text-anchor="middle">Baby</text>
  <line x1="50" y1="50" x2="138" y2="50" stroke="#E91E8C" stroke-width="2"/>
  <text x="281" y="36" font-family="-apple-system, SF Pro Text, Helvetica" font-size="16" font-weight="600" fill="#999" text-anchor="middle">Mom</text>

  <!-- Measurements Section -->
  <text x="24" y="88" font-family="-apple-system, SF Pro Text, Helvetica" font-size="14" font-weight="700" fill="#1A1A1A">Measurements</text>
  <rect x="16" y="98" width="167" height="60" rx="12" fill="white" stroke="#F0ECEF" stroke-width="1"/>
  <text x="28" y="114" font-family="-apple-system, SF Pro Text, Helvetica" font-size="12" font-weight="600" fill="#999">Weight (kg)</text>
  <text x="28" y="142" font-family="-apple-system, SF Pro Text, Helvetica" font-size="16" fill="#1A1A1A">7.8</text>

  <rect x="192" y="98" width="167" height="60" rx="12" fill="white" stroke="#F0ECEF" stroke-width="1"/>
  <text x="204" y="114" font-family="-apple-system, SF Pro Text, Helvetica" font-size="12" font-weight="600" fill="#999">Height (cm)</text>
  <text x="204" y="142" font-family="-apple-system, SF Pro Text, Helvetica" font-size="16" fill="#1A1A1A">68.5</text>

  <!-- Meals Section -->
  <text x="24" y="186" font-family="-apple-system, SF Pro Text, Helvetica" font-size="14" font-weight="700" fill="#1A1A1A">Meals Today</text>

  <rect x="16" y="196" width="343" height="44" rx="12" fill="white" stroke="#F0ECEF" stroke-width="1"/>
  <text x="32" y="224" font-family="-apple-system, SF Pro Text, Helvetica" font-size="16" fill="#1A1A1A">Oatmeal with banana</text>

  <rect x="16" y="248" width="343" height="44" rx="12" fill="white" stroke="#F0ECEF" stroke-width="1"/>
  <text x="32" y="276" font-family="-apple-system, SF Pro Text, Helvetica" font-size="16" fill="#1A1A1A">Rice porridge, chicken, carrot</text>

  <rect x="16" y="300" width="343" height="44" rx="12" fill="white" stroke="#F0ECEF" stroke-width="1"/>
  <text x="32" y="328" font-family="-apple-system, SF Pro Text, Helvetica" font-size="16" fill="#CCC">Snack</text>

  <rect x="16" y="352" width="343" height="44" rx="12" fill="white" stroke="#F0ECEF" stroke-width="1"/>
  <text x="32" y="380" font-family="-apple-system, SF Pro Text, Helvetica" font-size="16" fill="#CCC">Dinner</text>

  <!-- Milk Section -->
  <text x="24" y="422" font-family="-apple-system, SF Pro Text, Helvetica" font-size="14" font-weight="700" fill="#1A1A1A">Milk</text>
  <rect x="16" y="432" width="167" height="44" rx="12" fill="white" stroke="#F0ECEF" stroke-width="1"/>
  <text x="32" y="460" font-family="-apple-system, SF Pro Text, Helvetica" font-size="16" fill="#1A1A1A">Aptamil</text>
  <rect x="192" y="432" width="167" height="44" rx="12" fill="white" stroke="#F0ECEF" stroke-width="1"/>
  <text x="208" y="460" font-family="-apple-system, SF Pro Text, Helvetica" font-size="16" fill="#1A1A1A">Formula</text>

  <rect x="16" y="484" width="167" height="44" rx="12" fill="white" stroke="#F0ECEF" stroke-width="1"/>
  <text x="32" y="512" font-family="-apple-system, SF Pro Text, Helvetica" font-size="16" fill="#1A1A1A">180 ml</text>
  <rect x="192" y="484" width="167" height="44" rx="12" fill="white" stroke="#F0ECEF" stroke-width="1"/>
  <text x="208" y="512" font-family="-apple-system, SF Pro Text, Helvetica" font-size="16" fill="#1A1A1A">4x/day</text>

  <!-- Feelings Section -->
  <text x="24" y="556" font-family="-apple-system, SF Pro Text, Helvetica" font-size="14" font-weight="700" fill="#1A1A1A">Feelings &amp; Mood</text>
  <rect x="16" y="566" width="66" height="34" rx="8" fill="#E91E8C"/>
  <text x="49" y="588" font-family="-apple-system, SF Pro Text, Helvetica" font-size="13" font-weight="600" fill="white" text-anchor="middle">Happy</text>
  <rect x="90" y="566" width="60" height="34" rx="8" fill="#F5F3F6" stroke="#E8E4EA" stroke-width="1"/>
  <text x="120" y="588" font-family="-apple-system, SF Pro Text, Helvetica" font-size="13" font-weight="600" fill="#666" text-anchor="middle">Calm</text>
  <rect x="158" y="566" width="58" height="34" rx="8" fill="#E91E8C"/>
  <text x="187" y="588" font-family="-apple-system, SF Pro Text, Helvetica" font-size="13" font-weight="600" fill="white" text-anchor="middle">Alert</text>
  <rect x="224" y="566" width="62" height="34" rx="8" fill="#F5F3F6" stroke="#E8E4EA" stroke-width="1"/>
  <text x="255" y="588" font-family="-apple-system, SF Pro Text, Helvetica" font-size="13" font-weight="600" fill="#666" text-anchor="middle">Fussy</text>
  <rect x="294" y="566" width="65" height="34" rx="8" fill="#F5F3F6" stroke="#E8E4EA" stroke-width="1"/>
  <text x="326" y="588" font-family="-apple-system, SF Pro Text, Helvetica" font-size="13" font-weight="600" fill="#666" text-anchor="middle">Sleepy</text>

  <!-- Submit Button -->
  <rect x="16" y="624" width="343" height="48" rx="16" fill="url(#pinkGrad)"/>
  <text x="187" y="654" font-family="-apple-system, SF Pro Text, Helvetica" font-size="16" font-weight="700" fill="white" text-anchor="middle">Submit Baby Log</text>
</svg>