<svg xmlns="http://www.w3.org/2000/svg" viewBox="0 0 280 520" width="280" height="520">
  <defs>
    <linearGradient id="pg2" x1="0" y1="0" x2="1" y2="1"><stop offset="0%" stop-color="#E91E8C"/><stop offset="100%" stop-color="#FF6B9D"/></linearGradient>
    <clipPath id="sc4"><rect x="12" y="12" width="256" height="496" rx="28"/></clipPath>
  </defs>
  <rect width="280" height="520" rx="36" fill="#1a1a2e" stroke="rgba(255,255,255,0.08)" stroke-width="1"/>
  <g clip-path="url(#sc4)">
    <rect x="12" y="12" width="256" height="496" fill="#F8F6F9"/>
    <rect x="12" y="12" width="256" height="36" fill="rgba(248,246,249,0.95)"/>
    <text x="140" y="32" font-family="-apple-system,Helvetica" font-size="11" font-weight="600" fill="#1F2937" text-anchor="middle">9:41</text>
    <rect x="100" y="12" width="80" height="24" rx="12" fill="#1a1a2e"/>

    <!-- Header -->
    <rect x="12" y="48" width="256" height="52" fill="white"/>
    <line x1="12" y1="100" x2="268" y2="100" stroke="#F0F0F0" stroke-width="0.5"/>
    <text x="24" y="72" font-family="-apple-system,Helvetica" font-size="18" font-weight="700" fill="#1A1A1A">Health Monitor</text>
    <text x="24" y="90" font-family="-apple-system,Helvetica" font-size="10" font-weight="500" fill="#666">Track symptoms &amp; early detection</text>

    <!-- Stool Log -->
    <rect x="20" y="110" width="240" height="108" rx="12" fill="white"/>
    <text x="32" y="130" font-family="-apple-system,Helvetica" font-size="12" font-weight="700" fill="#1A1A1A">Today's Stool Log</text>
    <text x="32" y="150" font-family="-apple-system,Helvetica" font-size="10" fill="#999">Frequency</text>
    <text x="140" y="150" font-family="-apple-system,Helvetica" font-size="11" font-weight="600" fill="#1A1A1A">3 times</text>
    <text x="32" y="170" font-family="-apple-system,Helvetica" font-size="10" fill="#999">Color</text>
    <rect x="140" y="162" width="10" height="10" rx="3" fill="#C4A848"/>
    <text x="156" y="170" font-family="-apple-system,Helvetica" font-size="11" font-weight="600" fill="#1A1A1A">Yellow-brown</text>
    <text x="32" y="190" font-family="-apple-system,Helvetica" font-size="10" fill="#999">Consistency</text>
    <text x="140" y="190" font-family="-apple-system,Helvetica" font-size="11" font-weight="600" fill="#1A1A1A">Soft, formed</text>
    <text x="32" y="210" font-family="-apple-system,Helvetica" font-size="10" fill="#999">Status</text>
    <rect x="140" y="200" width="52" height="16" rx="4" fill="#D1FAE5"/>
    <text x="166" y="212" font-family="-apple-system,Helvetica" font-size="9" font-weight="600" fill="#10B981" text-anchor="middle">Normal</text>

    <!-- Temperature -->
    <rect x="20" y="226" width="240" height="72" rx="12" fill="white"/>
    <text x="32" y="246" font-family="-apple-system,Helvetica" font-size="12" font-weight="700" fill="#1A1A1A">Temperature Log</text>
    <text x="32" y="266" font-family="-apple-system,Helvetica" font-size="10" fill="#999">Morning</text>
    <text x="110" y="266" font-family="-apple-system,Helvetica" font-size="16" font-weight="700" fill="#10B981">36.8°C</text>
    <rect x="180" y="256" width="44" height="16" rx="4" fill="#D1FAE5"/>
    <text x="202" y="268" font-family="-apple-system,Helvetica" font-size="9" font-weight="600" fill="#10B981" text-anchor="middle">Normal</text>
    <text x="32" y="290" font-family="-apple-system,Helvetica" font-size="10" fill="#999">Evening</text>
    <text x="110" y="290" font-family="-apple-system,Helvetica" font-size="16" font-weight="700" fill="#F59E0B">37.4°C</text>
    <rect x="180" y="280" width="44" height="16" rx="4" fill="#FEF3C7"/>
    <text x="202" y="292" font-family="-apple-system,Helvetica" font-size="9" font-weight="600" fill="#F59E0B" text-anchor="middle">Watch</text>

    <!-- Symptoms -->
    <rect x="20" y="306" width="240" height="96" rx="12" fill="white"/>
    <text x="32" y="326" font-family="-apple-system,Helvetica" font-size="12" font-weight="700" fill="#1A1A1A">Symptoms Observed</text>
    <rect x="28" y="336" width="62" height="24" rx="6" fill="rgba(233,30,140,0.08)" stroke="rgba(233,30,140,0.15)" stroke-width="0.5"/>
    <text x="59" y="352" font-family="-apple-system,Helvetica" font-size="9" font-weight="600" fill="#E91E8C" text-anchor="middle">Fussy</text>
    <rect x="96" y="336" width="80" height="24" rx="6" fill="rgba(233,30,140,0.08)" stroke="rgba(233,30,140,0.15)" stroke-width="0.5"/>
    <text x="136" y="352" font-family="-apple-system,Helvetica" font-size="9" font-weight="600" fill="#E91E8C" text-anchor="middle">Less appetite</text>
    <rect x="182" y="336" width="64" height="24" rx="6" fill="#F5F3F6" stroke="#E8E4EA" stroke-width="0.5"/>
    <text x="214" y="352" font-family="-apple-system,Helvetica" font-size="9" font-weight="600" fill="#666" text-anchor="middle">Rash</text>
    <rect x="28" y="366" width="58" height="24" rx="6" fill="#F5F3F6" stroke="#E8E4EA" stroke-width="0.5"/>
    <text x="57" y="382" font-family="-apple-system,Helvetica" font-size="9" font-weight="600" fill="#666" text-anchor="middle">Vomiting</text>
    <rect x="92" y="366" width="64" height="24" rx="6" fill="rgba(233,30,140,0.08)" stroke="rgba(233,30,140,0.15)" stroke-width="0.5"/>
    <text x="124" y="382" font-family="-apple-system,Helvetica" font-size="9" font-weight="600" fill="#E91E8C" text-anchor="middle">Teething</text>

    <!-- AI Analysis -->
    <rect x="20" y="412" width="240" height="48" rx="12" fill="rgba(233,30,140,0.05)"/>
    <rect x="20" y="412" width="3" height="48" rx="1.5" fill="#E91E8C"/>
    <text x="32" y="432" font-family="-apple-system,Helvetica" font-size="11" font-weight="700" fill="#1A1A1A">AI Analysis</text>
    <text x="32" y="450" font-family="-apple-system,Helvetica" font-size="10" fill="#666">Mild temp + fussiness = likely teething</text>

    <!-- Submit -->
    <rect x="20" y="472" width="240" height="34" rx="12" fill="url(#pg2)"/>
    <text x="140" y="494" font-family="-apple-system,Helvetica" font-size="12" font-weight="700" fill="white" text-anchor="middle">Save &amp; Get Analysis</text>
  </g>
  <rect x="105" y="500" width="70" height="4" rx="2" fill="rgba(255,255,255,0.15)"/>
</svg>