<svg xmlns="http://www.w3.org/2000/svg" xmlns:xlink="http://www.w3.org/1999/xlink" width="565" zoomAndPan="magnify" viewBox="95 120 565 155" height="155" preserveAspectRatio="xMidYMid meet" version="1.0"><defs><g/><clipPath id="07a6e95bfd"><path d="M 589 145 L 647 145 L 647 218.207031 L 589 218.207031 Z M 589 145 " clip-rule="nonzero"/></clipPath><clipPath id="51dae0ff44"><rect x="0" width="504" y="0" height="159"/></clipPath></defs><path fill="#f89fa4" d="M 589.601562 186.917969 C 591.550781 188.0625 593.933594 188.78125 595.992188 189.804688 C 602.117188 192.847656 608.710938 196.519531 612.742188 202.320312 C 613.152344 202.914062 616.1875 207.832031 616 208.160156 C 619.679688 201.738281 622.433594 195.3125 626.84375 189.253906 C 631.800781 182.457031 636.757812 174.933594 639.136719 166.84375 C 640.613281 162.4375 640.976562 154.914062 636.757812 151.792969 C 629.429688 146.125 622.628906 156.132812 619.117188 161.457031 C 617.628906 163.710938 616.207031 167.296875 613.621094 168.496094 C 613.324219 168.640625 613.058594 168.730469 612.828125 168.761719 L 612.792969 168.917969 C 612.792969 168.871094 612.785156 168.816406 612.773438 168.773438 C 612.53125 166.371094 611.914062 164.078125 611 161.976562 C 605.5 149.152344 589.339844 143.035156 580.84375 159.550781 C 575.28125 170.171875 581.328125 179.867188 589.601562 186.917969 " fill-opacity="1" fill-rule="nonzero"/><g clip-path="url(#07a6e95bfd)"><path fill="#f8a1a6" d="M 619.117188 161.457031 C 622.628906 156.132812 629.429688 146.125 636.757812 151.792969 C 640.976562 154.914062 640.613281 162.4375 639.136719 166.84375 C 636.757812 174.929688 631.800781 182.457031 626.839844 189.253906 C 622.433594 195.3125 619.679688 201.738281 616 208.160156 C 616.1875 207.832031 613.152344 202.914062 612.742188 202.320312 C 608.710938 196.519531 602.117188 192.847656 595.992188 189.804688 C 593.933594 188.78125 591.550781 188.0625 589.601562 186.917969 C 590.339844 187.546875 591.089844 188.164062 591.859375 188.746094 C 602.328125 197.011719 610.039062 205.824219 614.445312 218.492188 C 622.710938 199.214844 648.050781 182.6875 646.949219 160.101562 C 645.296875 134.210938 618.304688 145.78125 613.894531 164.507812 L 612.828125 168.761719 C 613.058594 168.726562 613.324219 168.640625 613.621094 168.496094 C 616.207031 167.296875 617.628906 163.710938 619.117188 161.457031 " fill-opacity="1" fill-rule="nonzero"/></g><g transform="matrix(1, 0, 0, 1, 109, 143)"><g clip-path="url(#51dae0ff44)"><g fill="#000000" fill-opacity="1"><g transform="translate(3.646284, 121.568027)"><g><path d="M -2 -63.046875 L 27.9375 -63.046875 L 27.9375 -57.453125 L 27 -57.453125 C 25.40625 -57.453125 24.609375 -56.742188 24.609375 -55.328125 C 24.609375 -54.878906 24.695312 -54.429688 24.875 -53.984375 C 25.050781 -53.546875 25.226562 -53.0625 25.40625 -52.53125 L 41.234375 -20.875 L 49.734375 -39.5 L 44.015625 -50.9375 C 43.222656 -52.707031 42.140625 -54.234375 40.765625 -55.515625 C 39.390625 -56.804688 37.726562 -57.453125 35.78125 -57.453125 L 34.84375 -57.453125 L 34.84375 -63.046875 L 64.765625 -63.046875 L 64.765625 -57.453125 L 63.84375 -57.453125 C 62.25 -57.453125 61.453125 -56.742188 61.453125 -55.328125 C 61.453125 -54.878906 61.539062 -54.429688 61.71875 -53.984375 C 61.894531 -53.546875 62.113281 -53.0625 62.375 -52.53125 L 77.671875 -21.546875 L 88.171875 -48.9375 C 88.617188 -50.09375 88.84375 -51.160156 88.84375 -52.140625 C 88.84375 -54.265625 87.890625 -55.679688 85.984375 -56.390625 C 84.078125 -57.097656 81.972656 -57.453125 79.671875 -57.453125 L 78.734375 -57.453125 L 78.734375 -63.046875 L 105.46875 -63.046875 L 105.46875 -57.453125 L 104.53125 -57.453125 C 103.289062 -57.453125 102.023438 -56.941406 100.734375 -55.921875 C 99.453125 -54.898438 98.320312 -53.679688 97.34375 -52.265625 C 96.375 -50.847656 95.625 -49.519531 95.09375 -48.28125 L 74.75 0 L 69.5625 0 L 52.796875 -33.25 L 37.640625 0 L 32.578125 0 L 7.1875 -50.9375 C 6.300781 -52.707031 5.191406 -54.234375 3.859375 -55.515625 C 2.523438 -56.804688 0.882812 -57.453125 -1.0625 -57.453125 L -2 -57.453125 Z M -2 -63.046875 "/></g></g></g><g fill="#000000" fill-opacity="1"><g transform="translate(108.972919, 121.568027)"><g><path d="M 2.921875 -31.125 C 2.921875 -36.976562 4.003906 -42.382812 6.171875 -47.34375 C 8.347656 -52.3125 11.585938 -56.300781 15.890625 -59.3125 C 20.191406 -62.332031 25.488281 -63.84375 31.78125 -63.84375 C 37.632812 -63.84375 42.488281 -62.625 46.34375 -60.1875 C 50.207031 -57.75 53.09375 -54.441406 55 -50.265625 C 56.90625 -46.097656 57.859375 -41.398438 57.859375 -36.171875 L 57.859375 -34.046875 L 20.75 -34.046875 C 20.75 -30.585938 21.300781 -27.0625 22.40625 -23.46875 C 23.519531 -19.882812 25.335938 -16.867188 27.859375 -14.421875 C 30.390625 -11.984375 33.691406 -10.765625 37.765625 -10.765625 C 40.960938 -10.765625 44.066406 -11.5625 47.078125 -13.15625 C 50.097656 -14.757812 52.445312 -16.9375 54.125 -19.6875 L 58.25 -17.15625 C 55.5 -11.476562 52.195312 -6.976562 48.34375 -3.65625 C 44.488281 -0.332031 39.191406 1.328125 32.453125 1.328125 C 26.160156 1.328125 20.796875 -0.132812 16.359375 -3.0625 C 11.921875 -5.988281 8.570312 -9.910156 6.3125 -14.828125 C 4.050781 -19.753906 2.921875 -25.1875 2.921875 -31.125 Z M 21.015625 -39.640625 L 40.828125 -39.640625 C 40.648438 -42.648438 40.179688 -45.570312 39.421875 -48.40625 C 38.671875 -51.25 37.628906 -53.625 36.296875 -55.53125 C 34.972656 -57.4375 33.25 -58.390625 31.125 -58.390625 C 29 -58.390625 27.25 -57.367188 25.875 -55.328125 C 24.5 -53.285156 23.429688 -50.820312 22.671875 -47.9375 C 21.921875 -45.0625 21.367188 -42.296875 21.015625 -39.640625 Z M 21.015625 -39.640625 "/></g></g></g><g fill="#f8a1a6" fill-opacity="1"><g transform="translate(170.69153, 121.568027)"><g><path d="M 30.71875 0 L 1.203125 0 L 1.203125 -5.71875 L 2.125 -5.71875 C 4.164062 -5.71875 5.5625 -6.09375 6.3125 -6.84375 C 7.070312 -7.601562 7.453125 -8.957031 7.453125 -10.90625 L 7.453125 -44.953125 C 7.453125 -46.992188 7.070312 -48.390625 6.3125 -49.140625 C 5.5625 -49.898438 4.164062 -50.28125 2.125 -50.28125 L 1.203125 -50.28125 L 1.203125 -55.734375 L 24.46875 -62.90625 L 24.46875 -57.453125 C 26.414062 -59.578125 28.71875 -61.171875 31.375 -62.234375 C 34.039062 -63.304688 36.882812 -63.84375 39.90625 -63.84375 C 42.644531 -63.84375 45.34375 -63.351562 48 -62.375 C 50.664062 -61.394531 52.707031 -59.625 54.125 -57.0625 C 54.570312 -56.257812 54.972656 -55.414062 55.328125 -54.53125 C 55.679688 -53.644531 55.859375 -52.710938 55.859375 -51.734375 C 55.859375 -49.335938 54.992188 -47.492188 53.265625 -46.203125 C 51.535156 -44.921875 49.5625 -44.28125 47.34375 -44.28125 C 44.59375 -44.28125 42.289062 -45.390625 40.4375 -47.609375 C 40.257812 -47.878906 40.035156 -48.164062 39.765625 -48.46875 C 39.503906 -48.78125 39.285156 -49.070312 39.109375 -49.34375 C 38.210938 -50.582031 37.300781 -51.625 36.375 -52.46875 C 35.445312 -53.3125 34.050781 -53.734375 32.1875 -53.734375 C 29.789062 -53.734375 27.90625 -52.84375 26.53125 -51.0625 C 25.15625 -49.289062 24.46875 -47.253906 24.46875 -44.953125 L 24.46875 -10.90625 C 24.46875 -8.957031 24.84375 -7.601562 25.59375 -6.84375 C 26.351562 -6.09375 27.753906 -5.71875 29.796875 -5.71875 L 30.71875 -5.71875 Z M 30.71875 0 "/></g></g></g><g fill="#000000" fill-opacity="1"><g transform="translate(226.955191, 121.568027)"><g><path d="M 30.1875 0 L 0.671875 0 L 0.671875 -5.71875 L 1.59375 -5.71875 C 3.632812 -5.632812 5.03125 -5.988281 5.78125 -6.78125 C 6.539062 -7.582031 6.921875 -8.957031 6.921875 -10.90625 L 6.921875 -44.953125 C 6.921875 -46.992188 6.539062 -48.390625 5.78125 -49.140625 C 5.03125 -49.898438 3.632812 -50.28125 1.59375 -50.28125 L 0.671875 -50.28125 L 0.671875 -55.734375 L 23.9375 -62.90625 L 23.9375 -58.921875 C 26.238281 -60.609375 28.765625 -61.847656 31.515625 -62.640625 C 34.265625 -63.441406 37.015625 -63.84375 39.765625 -63.84375 C 43.316406 -63.84375 46.796875 -63.285156 50.203125 -62.171875 C 53.617188 -61.066406 56.300781 -58.921875 58.25 -55.734375 C 60.644531 -58.472656 63.503906 -60.507812 66.828125 -61.84375 C 70.148438 -63.175781 73.675781 -63.84375 77.40625 -63.84375 C 83.695312 -63.84375 88.613281 -62.289062 92.15625 -59.1875 C 95.707031 -56.082031 97.484375 -51.425781 97.484375 -45.21875 L 97.484375 -10.90625 C 97.484375 -8.957031 97.859375 -7.582031 98.609375 -6.78125 C 99.367188 -5.988281 100.769531 -5.632812 102.8125 -5.71875 L 103.734375 -5.71875 L 103.734375 0 L 74.21875 0 L 74.21875 -5.71875 L 75.140625 -5.71875 C 77.179688 -5.632812 78.554688 -5.988281 79.265625 -6.78125 C 79.972656 -7.582031 80.328125 -8.957031 80.328125 -10.90625 L 80.328125 -44.953125 C 80.328125 -47.960938 79.617188 -50.734375 78.203125 -53.265625 C 76.785156 -55.796875 74.4375 -57.0625 71.15625 -57.0625 C 69.207031 -57.0625 67.457031 -56.460938 65.90625 -55.265625 C 64.351562 -54.066406 63.109375 -52.554688 62.171875 -50.734375 C 61.242188 -48.921875 60.78125 -47.082031 60.78125 -45.21875 L 60.78125 -10.90625 C 60.78125 -8.957031 61.15625 -7.582031 61.90625 -6.78125 C 62.664062 -5.988281 64.019531 -5.632812 65.96875 -5.71875 L 66.90625 -5.71875 L 66.90625 0 L 37.375 0 L 37.375 -5.71875 L 38.296875 -5.71875 C 40.335938 -5.632812 41.734375 -5.988281 42.484375 -6.78125 C 43.242188 -7.582031 43.625 -8.957031 43.625 -10.90625 L 43.625 -44.953125 C 43.625 -48.503906 42.957031 -51.410156 41.625 -53.671875 C 40.300781 -55.929688 37.734375 -57.0625 33.921875 -57.0625 C 31.878906 -57.0625 30.101562 -56.4375 28.59375 -55.1875 C 27.082031 -53.945312 25.925781 -52.394531 25.125 -50.53125 C 24.332031 -48.675781 23.9375 -46.816406 23.9375 -44.953125 L 23.9375 -10.90625 C 23.9375 -8.957031 24.3125 -7.582031 25.0625 -6.78125 C 25.820312 -5.988281 27.222656 -5.632812 29.265625 -5.71875 L 30.1875 -5.71875 Z M 30.1875 0 "/></g></g></g><g fill="#000000" fill-opacity="1"><g transform="translate(332.281826, 121.568027)"><g><path d="M 32.578125 1.328125 C 25.671875 1.328125 20.019531 -0.175781 15.625 -3.1875 C 11.238281 -6.207031 8.003906 -10.195312 5.921875 -15.15625 C 3.835938 -20.125 2.796875 -25.578125 2.796875 -31.515625 C 2.796875 -37.546875 3.835938 -43 5.921875 -47.875 C 8.003906 -52.75 11.238281 -56.628906 15.625 -59.515625 C 20.019531 -62.398438 25.671875 -63.84375 32.578125 -63.84375 C 39.492188 -63.84375 45.171875 -62.421875 49.609375 -59.578125 C 54.046875 -56.742188 57.304688 -52.890625 59.390625 -48.015625 C 61.472656 -43.140625 62.515625 -37.640625 62.515625 -31.515625 C 62.515625 -25.578125 61.445312 -20.125 59.3125 -15.15625 C 57.1875 -10.195312 53.925781 -6.207031 49.53125 -3.1875 C 45.144531 -0.175781 39.492188 1.328125 32.578125 1.328125 Z M 20.75 -31.515625 C 20.75 -29.566406 20.859375 -27.0625 21.078125 -24 C 21.296875 -20.945312 21.757812 -17.890625 22.46875 -14.828125 C 23.1875 -11.765625 24.363281 -9.191406 26 -7.109375 C 27.644531 -5.023438 29.835938 -3.984375 32.578125 -3.984375 C 35.421875 -3.984375 37.640625 -5.023438 39.234375 -7.109375 C 40.828125 -9.191406 42 -11.765625 42.75 -14.828125 C 43.507812 -17.890625 44 -20.945312 44.21875 -24 C 44.445312 -27.0625 44.5625 -29.566406 44.5625 -31.515625 C 44.5625 -33.472656 44.445312 -35.957031 44.21875 -38.96875 C 44 -41.976562 43.507812 -44.988281 42.75 -48 C 42 -51.019531 40.828125 -53.550781 39.234375 -55.59375 C 37.640625 -57.632812 35.421875 -58.65625 32.578125 -58.65625 C 29.835938 -58.65625 27.644531 -57.632812 26 -55.59375 C 24.363281 -53.550781 23.1875 -51.019531 22.46875 -48 C 21.757812 -44.988281 21.296875 -41.976562 21.078125 -38.96875 C 20.859375 -35.957031 20.75 -33.472656 20.75 -31.515625 Z M 20.75 -31.515625 "/></g></g></g><g fill="#000000" fill-opacity="1"><g transform="translate(397.313038, 121.568027)"><g><path d="M 30.1875 0 L 0.671875 0 L 0.671875 -5.71875 L 1.59375 -5.71875 C 3.632812 -5.632812 5.03125 -5.988281 5.78125 -6.78125 C 6.539062 -7.582031 6.921875 -8.957031 6.921875 -10.90625 L 6.921875 -44.953125 C 6.921875 -46.992188 6.539062 -48.390625 5.78125 -49.140625 C 5.03125 -49.898438 3.632812 -50.28125 1.59375 -50.28125 L 0.671875 -50.28125 L 0.671875 -55.734375 L 23.9375 -62.90625 L 23.9375 -58.921875 C 26.238281 -60.609375 28.765625 -61.847656 31.515625 -62.640625 C 34.265625 -63.441406 37.015625 -63.84375 39.765625 -63.84375 C 43.316406 -63.84375 46.796875 -63.285156 50.203125 -62.171875 C 53.617188 -61.066406 56.300781 -58.921875 58.25 -55.734375 C 60.644531 -58.472656 63.503906 -60.507812 66.828125 -61.84375 C 70.148438 -63.175781 73.675781 -63.84375 77.40625 -63.84375 C 83.695312 -63.84375 88.613281 -62.289062 92.15625 -59.1875 C 95.707031 -56.082031 97.484375 -51.425781 97.484375 -45.21875 L 97.484375 -10.90625 C 97.484375 -8.957031 97.859375 -7.582031 98.609375 -6.78125 C 99.367188 -5.988281 100.769531 -5.632812 102.8125 -5.71875 L 103.734375 -5.71875 L 103.734375 0 L 74.21875 0 L 74.21875 -5.71875 L 75.140625 -5.71875 C 77.179688 -5.632812 78.554688 -5.988281 79.265625 -6.78125 C 79.972656 -7.582031 80.328125 -8.957031 80.328125 -10.90625 L 80.328125 -44.953125 C 80.328125 -47.960938 79.617188 -50.734375 78.203125 -53.265625 C 76.785156 -55.796875 74.4375 -57.0625 71.15625 -57.0625 C 69.207031 -57.0625 67.457031 -56.460938 65.90625 -55.265625 C 64.351562 -54.066406 63.109375 -52.554688 62.171875 -50.734375 C 61.242188 -48.921875 60.78125 -47.082031 60.78125 -45.21875 L 60.78125 -10.90625 C 60.78125 -8.957031 61.15625 -7.582031 61.90625 -6.78125 C 62.664062 -5.988281 64.019531 -5.632812 65.96875 -5.71875 L 66.90625 -5.71875 L 66.90625 0 L 37.375 0 L 37.375 -5.71875 L 38.296875 -5.71875 C 40.335938 -5.632812 41.734375 -5.988281 42.484375 -6.78125 C 43.242188 -7.582031 43.625 -8.957031 43.625 -10.90625 L 43.625 -44.953125 C 43.625 -48.503906 42.957031 -51.410156 41.625 -53.671875 C 40.300781 -55.929688 37.734375 -57.0625 33.921875 -57.0625 C 31.878906 -57.0625 30.101562 -56.4375 28.59375 -55.1875 C 27.082031 -53.945312 25.925781 -52.394531 25.125 -50.53125 C 24.332031 -48.675781 23.9375 -46.816406 23.9375 -44.953125 L 23.9375 -10.90625 C 23.9375 -8.957031 24.3125 -7.582031 25.0625 -6.78125 C 25.820312 -5.988281 27.222656 -5.632812 29.265625 -5.71875 L 30.1875 -5.71875 Z M 30.1875 0 "/></g></g></g></g></g></svg>